{
  "accessors": [
    {
      "bufferView": 1,
      "componentType": 5126,
      "count": 1705,
      "max": [
        28.5,
        28.5,
        9.5
      ],
      "min": [
        -0.5,
        -0.5,
        -0.5
      ],
      "type": "VEC3"
    },
    {
      "bufferView": 1,
      "byteOffset": 20460,
      "componentType": 5126,
      "count": 1705,
      "max": [
        1.0,
        1.0,
        1.0
      ],
      "min": [
        -1.0,
        -1.0,
        -1.0
      ],
      "type": "VEC3"
    },
    {
      "bufferView": 2,
      "componentType": 5126,
      "count": 1705,
      "max": [
        0.21960784494876862,
        0.21960784494876862,
        0.21960784494876862,
        1.0
      ],
      "min": [
        0.21960784494876862,
        0.21960784494876862,
        0.21960784494876862,
        1.0
      ],
      "type": "VEC4"
    },
    {
      "bufferView": 0,
      "componentType": 5125,
      "count": 4668,
      "type": "SCALAR"
    },
    {
      "bufferView": 1,
      "byteOffset": 40920,
      "componentType": 5126,
      "count": 779,
      "max": [
        14.5,
        17.5,
        42.5
      ],
      "min": [
        11.5,
        11.5,
        5.5
      ],
      "type": "VEC3"
    },
    {
      "bufferView": 1,
      "byteOffset": 50268,
      "componentType": 5126,
      "count": 779,
      "max": [
        1.0,
        1.0,
        0.0
      ],
      "min": [
        -1.0,
        -1.0,
        -1.0
      ],
      "type": "VEC3"
    },
    {
      "bufferView": 2,
      "byteOffset": 27280,
      "componentType": 5126,
      "count": 779,
      "max": [
        0.8509804010391235,
        0.8509804010391235,
        0.8509804010391235,
        1.0
      ],
      "min": [
        0.8509804010391235,
        0.8509804010391235,
        0.8509804010391235,
        1.0
      ],
      "type": "VEC4"
    },
    {
      "bufferView": 0,
      "byteOffset": 18672,
      "componentType": 5125,
      "count": 2442,
      "type": "SCALAR"
    },
    {
      "bufferView": 1,
      "byteOffset": 59616,
      "componentType": 5126,
      "count": 208,
      "max": [
        14.5,
        16.5,
        52.5
      ],
      "min": [
        11.5,
        12.5,
        45.5
      ],
      "type": "VEC3"
    },
    {
      "bufferView": 1,
      "byteOffset": 62112,
      "componentType": 5126,
      "count": 208,
      "max": [
        1.0,
        1.0,
        0.0
      ],
      "min": [
        -1.0,
        -1.0,
        0.0
      ],
      "type": "VEC3"
    },
    {
      "bufferView": 2,
      "byteOffset": 39744,
      "componentType": 5126,
      "count": 208,
      "max": [
        0.29411765933036804,
        0.20392157137393951,
        0.1411764770746231,
        1.0
      ],
      "min": [
        0.29411765933036804,
        0.20392157137393951,
        0.1411764770746231,
        1.0
      ],
      "type": "VEC4"
    },
    {
      "bufferView": 0,
      "byteOffset": 28440,
      "componentType": 5125,
      "count": 336,
      "type": "SCALAR"
    },
    {
      "bufferView": 1,
      "byteOffset": 64608,
      "componentType": 5126,
      "count": 132,
      "max": [
        14.5,
        17.5,
        56.5
      ],
      "min": [
        11.5,
        11.5,
        53.5
      ],
      "type": "VEC3"
    },
    {
      "bufferView": 1,
      "byteOffset": 66192,
      "componentType": 5126,
      "count": 132,
      "max": [
        1.0,
        1.0,
        1.0
      ],
      "min": [
        -1.0,
        -1.0,
        -1.0
      ],
      "type": "VEC3"
    },
    {
      "bufferView": 2,
      "byteOffset": 43072,
      "componentType": 5126,
      "count": 132,
      "max": [
        0.658823549747467,
        0.5137255191802979,
        0.3960784375667572,
        1.0
      ],
      "min": [
        0.658823549747467,
        0.5137255191802979,
        0.3960784375667572,
        1.0
      ],
      "type": "VEC4"
    },
    {
      "bufferView": 0,
      "byteOffset": 29784,
      "componentType": 5125,
      "count": 396,
      "type": "SCALAR"
    },
    {
      "bufferView": 1,
      "byteOffset": 67776,
      "componentType": 5126,
      "count": 2765,
      "max": [
        28.5,
        28.5,
        9.5
      ],
      "min": [
        -0.5,
        -0.5,
        -0.5
      ],
      "type": "VEC3"
    },
    {
      "bufferView": 1,
      "byteOffset": 100956,
      "componentType": 5126,
      "count": 2765,
      "max": [
        1.0,
        1.0,
        1.0
      ],
      "min": [
        -1.0,
        -1.0,
        -1.0
      ],
      "type": "VEC3"
    },
    {
      "bufferView": 2,
      "byteOffset": 45184,
      "componentType": 5126,
      "count": 2765,
      "max": [
        0.18431372940540314,
        0.18431372940540314,
        0.18431372940540314,
        1.0
      ],
      "min": [
        0.18431372940540314,
        0.18431372940540314,
        0.18431372940540314,
        1.0
      ],
      "type": "VEC4"
    },
    {
      "bufferView": 0,
      "byteOffset": 31368,
      "componentType": 5125,
      "count": 9372,
      "type": "SCALAR"
    },
    {
      "bufferView": 1,
      "byteOffset": 134136,
      "componentType": 5126,
      "count": 548,
      "max": [
        14.5,
        17.5,
        42.5
      ],
      "min": [
        11.5,
        11.5,
        5.5
      ],
      "type": "VEC3"
    },
    {
      "bufferView": 1,
      "byteOffset": 140712,
      "componentType": 5126,
      "count": 548,
      "max": [
        1.0,
        1.0,
        0.0
      ],
      "min": [
        -1.0,
        -1.0,
        -1.0
      ],
      "type": "VEC3"
    },
    {
      "bufferView": 2,
      "byteOffset": 89424,
      "componentType": 5126,
      "count": 548,
      "max": [
        0.6901960968971252,
        0.6901960968971252,
        0.6901960968971252,
        1.0
      ],
      "min": [
        0.6901960968971252,
        0.6901960968971252,
        0.6901960968971252,
        1.0
      ],
      "type": "VEC4"
    },
    {
      "bufferView": 0,
      "byteOffset": 68856,
      "componentType": 5125,
      "count": 1482,
      "type": "SCALAR"
    },
    {
      "bufferView": 1,
      "byteOffset": 147288,
      "componentType": 5126,
      "count": 698,
      "max": [
        15.5,
        23.5,
        53.5
      ],
      "min": [
        10.5,
        5.5,
        42.5
      ],
      "type": "VEC3"
    },
    {
      "bufferView": 1,
      "byteOffset": 155664,
      "componentType": 5126,
      "count": 698,
      "max": [
        1.0,
        1.0,
        1.0
      ],
      "min": [
        -1.0,
        -1.0,
        -1.0
      ],
      "type": "VEC3"
    },
    {
      "bufferView": 2,
      "byteOffset": 98192,
      "componentType": 5126,
      "count": 698,
      "max": [
        0.5098039507865906,
        0.364705890417099,
        0.26274511218070984,
        1.0
      ],
      "min": [
        0.5098039507865906,
        0.364705890417099,
        0.26274511218070984,
        1.0
      ],
      "type": "VEC4"
    },
    {
      "bufferView": 0,
      "byteOffset": 74784,
      "componentType": 5125,
      "count": 1704,
      "type": "SCALAR"
    },
    {
      "bufferView": 1,
      "byteOffset": 164040,
      "componentType": 5126,
      "count": 44,
      "max": [
        14.5,
        16.5,
        55.5
      ],
      "min": [
        11.5,
        12.5,
        53.5
      ],
      "type": "VEC3"
    },
    {
      "bufferView": 1,
      "byteOffset": 164568,
      "componentType": 5126,
      "count": 44,
      "max": [
        1.0,
        0.0,
        0.0
      ],
      "min": [
        -1.0,
        0.0,
        -1.0
      ],
      "type": "VEC3"
    },
    {
      "bufferView": 2,
      "byteOffset": 109360,
      "componentType": 5126,
      "count": 44,
      "max": [
        0.8313725590705872,
        0.6549019813537598,
        0.501960813999176,
        1.0
      ],
      "min": [
        0.8313725590705872,
        0.6549019813537598,
        0.501960813999176,
        1.0
      ],
      "type": "VEC4"
    },
    {
      "bufferView": 0,
      "byteOffset": 81600,
      "componentType": 5125,
      "count": 96,
      "type": "SCALAR"
    },
    {
      "bufferView": 1,
      "byteOffset": 165096,
      "componentType": 5126,
      "count": 256,
      "max": [
        14.5,
        16.5,
        65.5
      ],
      "min": [
        11.5,
        12.5,
        58.5
      ],
      "type": "VEC3"
    },
    {
      "bufferView": 1,
      "byteOffset": 168168,
      "componentType": 5126,
      "count": 256,
      "max": [
        1.0,
        1.0,
        1.0
      ],
      "min": [
        -1.0,
        -1.0,
        -1.0
      ],
      "type": "VEC3"
    },
    {
      "bufferView": 2,
      "byteOffset": 110064,
      "componentType": 5126,
      "count": 256,
      "max": [
        0.5529412031173706,
        1.0,
        0.5921568870544434,
        1.0
      ],
      "min": [
        0.5529412031173706,
        1.0,
        0.5921568870544434,
        1.0
      ],
      "type": "VEC4"
    },
    {
      "bufferView": 0,
      "byteOffset": 81984,
      "componentType": 5125,
      "count": 636,
      "type": "SCALAR"
    }
  ],
  "asset": {
    "extras": {
      "author": "Zipi_code (https://sketchfab.com/Zipi_code)",
      "license": "CC-BY-4.0 (http://creativecommons.org/licenses/by/4.0/)",
      "source": "https://sketchfab.com/3d-models/sword-excalibur-eb900a37a8da44ca89ed0881d25c13a3",
      "title": "Sword Excalibur"
    },
    "generator": "Sketchfab-10.99.0",
    "version": "2.0"
  },
  "bufferViews": [
    {
      "buffer": 0,
      "byteLength": 84528,
      "name": "floatBufferViews",
      "target": 34963
    },
    {
      "buffer": 0,
      "byteLength": 171240,
      "byteOffset": 84528,
      "byteStride": 12,
      "name": "floatBufferViews",
      "target": 34962
    },
    {
      "buffer": 0,
      "byteLength": 114160,
      "byteOffset": 255768,
      "byteStride": 16,
      "name": "floatBufferViews",
      "target": 34962
    }
  ],
  "buffers": [
    {
      "byteLength": 369928,
      "uri": "scene.bin"
    }
  ],
  "extensionsRequired": [
    "KHR_materials_pbrSpecularGlossiness"
  ],
  "extensionsUsed": [
    "KHR_materials_pbrSpecularGlossiness"
  ],
  "materials": [
    {
      "doubleSided": true,
      "extensions": {
        "KHR_materials_pbrSpecularGlossiness": {
          "diffuseFactor": [
            0.8,
            0.8,
            0.8,
            1.0
          ],
          "glossinessFactor": 0.4,
          "specularFactor": [
            0.0,
            0.0,
            0.0
          ]
        }
      },
      "name": "VoxMaterial_241"
    },
    {
      "doubleSided": true,
      "extensions": {
        "KHR_materials_pbrSpecularGlossiness": {
          "diffuseFactor": [
            0.8,
            0.8,
            0.8,
            1.0
          ],
          "glossinessFactor": 1.0,
          "specularFactor": [
            0.0,
            0.0,
            0.0
          ]
        }
      },
      "name": "VoxMaterial_242"
    },
    {
      "doubleSided": true,
      "extensions": {
        "KHR_materials_pbrSpecularGlossiness": {
          "diffuseFactor": [
            0.8,
            0.8,
            0.8,
            1.0
          ],
          "glossinessFactor": 0.4,
          "specularFactor": [
            0.0,
            0.0,
            0.0
          ]
        }
      },
      "name": "VoxMaterial_243"
    },
    {
      "doubleSided": true,
      "extensions": {
        "KHR_materials_pbrSpecularGlossiness": {
          "diffuseFactor": [
            0.8,
            0.8,
            0.8,
            1.0
          ],
          "glossinessFactor": 0.4,
          "specularFactor": [
            0.0,
            0.0,
            0.0
          ]
        }
      },
      "name": "VoxMaterial_244"
    },
    {
      "doubleSided": true,
      "extensions": {
        "KHR_materials_pbrSpecularGlossiness": {
          "diffuseFactor": [
            0.8,
            0.8,
            0.8,
            1.0
          ],
          "glossinessFactor": 0.4,
          "specularFactor": [
            0.0,
            0.0,
            0.0
          ]
        }
      },
      "name": "VoxMaterial_249"
    },
    {
      "doubleSided": true,
      "extensions": {
        "KHR_materials_pbrSpecularGlossiness": {
          "diffuseFactor": [
            0.8,
            0.8,
            0.8,
            1.0
          ],
          "glossinessFactor": 0.4,
          "specularFactor": [
            0.0,
            0.0,
            0.0
          ]
        }
      },
      "name": "VoxMaterial_250"
    },
    {
      "doubleSided": true,
      "extensions": {
        "KHR_materials_pbrSpecularGlossiness": {
          "diffuseFactor": [
            0.8,
            0.8,
            0.8,
            1.0
          ],
          "glossinessFactor": 0.0,
          "specularFactor": [
            0.0,
            0.0,
            0.0
          ]
        }
      },
      "name": "VoxMaterial_251"
    },
    {
      "doubleSided": true,
      "extensions": {
        "KHR_materials_pbrSpecularGlossiness": {
          "diffuseFactor": [
            0.8,
            0.8,
            0.8,
            1.0
          ],
          "glossinessFactor": 0.4,
          "specularFactor": [
            0.0,
            0.0,
            0.0
          ]
        }
      },
      "name": "VoxMaterial_252"
    },
    {
      "alphaMode": "BLEND",
      "doubleSided": true,
      "extensions": {
        "KHR_materials_pbrSpecularGlossiness": {
          "diffuseFactor": [
            0.8,
            0.8,
            0.8,
            0.5246049407487126
          ],
          "glossinessFactor": 0.4,
          "specularFactor": [
            0.0,
            0.0,
            0.0
          ]
        }
      },
      "name": "VoxMaterial_253"
    }
  ],
  "meshes": [
    {
      "name": "Object_0",
      "primitives": [
        {
          "attributes": {
            "COLOR_0": 2,
            "NORMAL": 1,
            "POSITION": 0
          },
          "indices": 3,
          "material": 0,
          "mode": 4
        }
      ]
    },
    {
      "name": "Object_1",
      "primitives": [
        {
          "attributes": {
            "COLOR_0": 6,
            "NORMAL": 5,
            "POSITION": 4
          },
          "indices": 7,
          "material": 1,
          "mode": 4
        }
      ]
    },
    {
      "name": "Object_2",
      "primitives": [
        {
          "attributes": {
            "COLOR_0": 10,
            "NORMAL": 9,
            "POSITION": 8
          },
          "indices": 11,
          "material": 2,
          "mode": 4
        }
      ]
    },
    {
      "name": "Object_3",
      "primitives": [
        {
          "attributes": {
            "COLOR_0": 14,
            "NORMAL": 13,
            "POSITION": 12
          },
          "indices": 15,
          "material": 3,
          "mode": 4
        }
      ]
    },
    {
      "name": "Object_4",
      "primitives": [
        {
          "attributes": {
            "COLOR_0": 18,
            "NORMAL": 17,
            "POSITION": 16
          },
          "indices": 19,
          "material": 4,
          "mode": 4
        }
      ]
    },
    {
      "name": "Object_5",
      "primitives": [
        {
          "attributes": {
            "COLOR_0": 22,
            "NORMAL": 21,
            "POSITION": 20
          },
          "indices": 23,
          "material": 5,
          "mode": 4
        }
      ]
    },
    {
      "name": "Object_6",
      "primitives": [
        {
          "attributes": {
            "COLOR_0": 26,
            "NORMAL": 25,
            "POSITION": 24
          },
          "indices": 27,
          "material": 6,
          "mode": 4
        }
      ]
    },
    {
      "name": "Object_7",
      "primitives": [
        {
          "attributes": {
            "COLOR_0": 30,
            "NORMAL": 29,
            "POSITION": 28
          },
          "indices": 31,
          "material": 7,
          "mode": 4
        }
      ]
    },
    {
      "name": "Object_8",
      "primitives": [
        {
          "attributes": {
            "COLOR_0": 34,
            "NORMAL": 33,
            "POSITION": 32
          },
          "indices": 35,
          "material": 8,
          "mode": 4
        }
      ]
    }
  ],
  "nodes": [
    {
      "children": [
        1
      ],
      "matrix": [
        1.0,
        0.0,
        0.0,
        0.0,
        0.0,
        2.220446049250313e-16,
        -1.0,
        0.0,
        0.0,
        1.0,
        2.220446049250313e-16,
        0.0,
        0.0,
        0.0,
        0.0,
        1.0
      ],
      "name": "Sketchfab_model"
    },
    {
      "children": [
        2
      ],
      "name": "VoxRoot"
    },
    {
      "children": [
        3
      ],
      "name": "VoxTransform"
    },
    {
      "children": [
        4
      ],
      "name": "VoxGroup"
    },
    {
      "children": [
        5,
        6,
        7,
        8,
        9,
        10,
        11,
        12,
        13
      ],
      "matrix": [
        1.0,
        0.0,
        0.0,
        0.0,
        0.0,
        1.0,
        0.0,
        0.0,
        0.0,
        0.0,
        1.0,
        0.0,
        0.0,
        0.0,
        20.0,
        1.0
      ],
      "name": "VoxTransform"
    },
    {
      "mesh": 0,
      "name": "Object_5"
    },
    {
      "mesh": 1,
      "name": "Object_6"
    },
    {
      "mesh": 2,
      "name": "Object_7"
    },
    {
      "mesh": 3,
      "name": "Object_8"
    },
    {
      "mesh": 4,
      "name": "Object_9"
    },
    {
      "mesh": 5,
      "name": "Object_10"
    },
    {
      "mesh": 6,
      "name": "Object_11"
    },
    {
      "mesh": 7,
      "name": "Object_12"
    },
    {
      "mesh": 8,
      "name": "Object_13"
    }
  ],
  "scene": 0,
  "scenes": [
    {
      "name": "Sketchfab_Scene",
      "nodes": [
        0
      ]
    }
  ]
}
